<svg width="616" height="598" viewBox="0 0 616 598" fill="none" xmlns="http://www.w3.org/2000/svg">
    <path d="M604.251 489.886C593.044 507.266 574.121 518.555 549.417 524.047C524.711 529.54 494.26 529.226 460.075 523.422C391.706 511.815 308.505 478.269 226.693 425.519C144.881 372.769 79.9889 310.828 41.2008 253.344C21.8062 224.601 8.95205 196.993 3.75932 172.222C-1.43278 147.454 1.04019 125.558 12.2463 108.178C23.4524 90.7983 42.3763 79.5092 67.0794 74.0169C91.7855 68.5238 122.237 68.8386 156.422 74.6424C224.791 86.2496 307.992 119.795 389.804 172.545C471.616 225.295 536.508 287.236 575.296 344.72C594.691 373.463 607.545 401.071 612.738 425.842C617.93 450.61 615.457 472.506 604.251 489.886Z"
          stroke="#31906C"/>
    <path d="M516.569 583.013C499.895 595.245 478.187 599.031 453.152 595.339C428.113 591.646 399.782 580.476 369.924 562.847C310.21 527.588 244.476 466.541 186.898 388.051C129.321 309.562 90.8296 228.53 75.1291 160.984C67.2787 127.21 65.1321 96.8328 69.1284 71.8409C73.1243 46.852 83.2541 27.2832 99.9282 15.0515C116.602 2.81979 138.31 -0.966341 163.345 2.7259C188.384 6.41859 216.715 17.5881 246.573 35.2179C306.287 70.4765 372.021 131.524 429.599 210.013C487.176 288.502 525.668 369.534 541.368 437.08C549.218 470.854 551.365 501.232 547.369 526.224C543.373 551.212 533.243 570.781 516.569 583.013Z"
          stroke="#F4423C"/>
    <path d="M22.8367 505.387C10.7204 488.629 7.08425 466.896 10.9492 441.887C14.8146 416.874 26.1794 388.621 44.0149 358.885C79.6848 299.416 141.184 234.105 220.069 177.071C298.954 120.036 380.25 82.105 447.902 66.8713C481.73 59.2541 512.121 57.3172 537.085 61.486C562.046 65.6542 581.544 75.9189 593.661 92.677C605.777 109.435 609.413 131.168 605.548 156.178C601.683 181.19 590.318 209.444 572.482 239.179C536.813 298.648 475.313 363.96 396.428 420.994C317.543 478.028 236.248 515.959 168.595 531.193C134.768 538.81 104.376 540.747 79.4122 536.579C54.4515 532.41 34.953 522.146 22.8367 505.387Z"
          stroke="#3656FF"/>
</svg>
