<svg width="86" height="85" viewBox="0 0 86 85" fill="none" xmlns="http://www.w3.org/2000/svg">
    <path d="M76.4879 64.0745C75.2494 65.9954 73.1498 67.2572 70.3748 67.8742C67.5983 68.4915 64.1633 68.4584 60.2924 67.8012C52.5516 66.487 43.1174 62.6856 33.8335 56.6995C24.5495 50.7135 17.1935 43.6891 12.8018 37.1806C10.6057 33.926 9.15789 30.8108 8.57434 28.027C7.99109 25.2447 8.27395 22.8115 9.51244 20.8907C10.7509 18.9698 12.8506 17.708 15.6256 17.091C18.402 16.4737 21.8371 16.5068 25.708 17.164C33.4488 18.4782 42.8829 22.2796 52.1669 28.2657C61.4508 34.2517 68.8069 41.2761 73.1985 47.7846C75.3946 51.0392 76.8425 54.1544 77.426 56.9382C78.0093 59.7205 77.7264 62.1537 76.4879 64.0745Z"
          stroke="#31906C" stroke-width="0.5"/>
    <path d="M66.5677 74.6105C64.7249 75.9623 62.3131 76.3911 59.5008 75.9763C56.6869 75.5613 53.4902 74.3036 50.1093 72.3073C43.3484 68.3153 35.894 61.3953 29.3602 52.4884C22.8263 43.5815 18.4641 34.3932 16.6864 26.7455C15.7975 22.9212 15.5577 19.4943 16.0068 16.6857C16.4557 13.8786 17.5889 11.7069 19.4317 10.3551C21.2746 9.00321 23.6864 8.57444 26.4987 8.9892C29.3125 9.40419 32.5092 10.6619 35.8901 12.6582C42.6511 16.6502 50.1054 23.5702 56.6393 32.4772C63.1731 41.3841 67.5354 50.5723 69.313 58.22C70.202 62.0444 70.4417 65.4712 69.9926 68.2798C69.5437 71.0869 68.4105 73.2586 66.5677 74.6105Z"
          stroke="#F4423C" stroke-width="0.5"/>
    <path d="M10.7108 65.8285C9.37167 63.9764 8.95955 61.5617 9.39372 58.7523C9.82812 55.9414 11.1079 52.7535 13.1274 49.3864C17.1661 42.6532 24.1374 35.2468 33.0892 28.7746C42.041 22.3023 51.2591 18.0036 58.9189 16.2788C62.7493 15.4163 66.1777 15.2002 68.9831 15.6687C71.787 16.1369 73.9509 17.2851 75.29 19.1372C76.6291 20.9893 77.0412 23.404 76.607 26.2134C76.1726 29.0243 74.8929 32.2123 72.8733 35.5793C68.8347 42.3125 61.8634 49.7189 52.9116 56.1912C43.9598 62.6634 34.7416 66.9621 27.0819 68.6869C23.2515 69.5494 19.8231 69.7655 17.0177 69.297C14.2137 68.8288 12.0498 67.6806 10.7108 65.8285Z"
          stroke="#3656FF" stroke-width="0.5"/>
</svg>
