<svg width="855" height="764" viewBox="0 0 855 664" fill="none" xmlns="http://www.w3.org/2000/svg">
    <g style="mix-blend-mode:overlay">
        <path d="M645.623 373.973L647.91 340.756L627.488 398.218L645.623 373.973Z" stroke="#2C2C2CB0" stroke-width="1.5"
              stroke-miterlimit="10" stroke-linejoin="round"/>
        <path d="M645.624 373.973L627.488 398.217C627.024 416.913 626.864 426.157 626.608 443.876L645.624 373.973Z"
              stroke="#2C2C2CB0" stroke-width="1.5" stroke-miterlimit="10" stroke-linejoin="round"/>
        <path d="M627.488 398.218C623.73 377.971 621.811 367.608 617.845 347.041C629.631 344.786 641.994 343.011 647.911 340.756L627.488 398.218Z"
              stroke="#2C2C2CB0" stroke-width="1.5" stroke-miterlimit="10" stroke-linejoin="round"/>
        <path d="M627.488 398.218C627.024 416.913 626.865 426.157 626.609 443.877C622.547 406.95 620.819 386.607 617.845 347.041C621.811 367.608 623.714 377.971 627.488 398.218Z"
              stroke="#2C2C2CB0" stroke-width="1.5" stroke-miterlimit="10" stroke-linejoin="round"/>
        <path d="M617.844 347.041C613.478 380.77 611.431 398.01 606.985 430.043C615.781 435.608 619.747 438.375 626.608 443.877C622.546 406.95 620.819 386.607 617.844 347.041Z"
              stroke="#2C2C2CB0" stroke-width="1.5" stroke-miterlimit="10" stroke-linejoin="round"/>
        <path d="M606.986 430.043C603.547 455.663 601.804 468.057 597.758 490.351C611.815 472.951 617.589 463.499 626.609 443.876C619.732 438.375 615.782 435.608 606.986 430.043Z"
              stroke="#2C2C2CB0" stroke-width="1.5" stroke-miterlimit="10" stroke-linejoin="round"/>
        <path d="M606.986 430.043C597.854 422.846 592.784 419.216 581.861 411.923C598.686 386.463 605.898 373.221 617.845 347.041C613.479 380.77 611.432 398.01 606.986 430.043Z"
              stroke="#2C2C2CB0" stroke-width="1.5" stroke-miterlimit="10" stroke-linejoin="round"/>
        <path d="M581.861 411.923C588.21 445.428 591.393 461.756 597.758 490.351C601.788 468.057 603.531 455.663 606.986 430.043C597.854 422.862 592.784 419.232 581.861 411.923Z"
              stroke="#2C2C2CB0" stroke-width="1.5" stroke-miterlimit="10" stroke-linejoin="round"/>
        <path d="M581.861 411.923C569.115 450.465 561.582 469.928 545.75 500.602C568.843 496.748 579.798 494.509 597.758 490.351C591.392 461.756 588.194 445.428 581.861 411.923Z"
              stroke="#2C2C2CB0" stroke-width="1.5" stroke-miterlimit="10" stroke-linejoin="round"/>
        <path d="M619.476 289.5C618.612 312.065 618.277 323.772 617.845 347.041C629.631 344.786 641.994 343.011 647.911 340.756L619.476 289.5Z"
              stroke="#2C2C2CB0" stroke-width="1.5" stroke-miterlimit="10" stroke-linejoin="round"/>
        <path d="M647.91 340.756L643.049 311.617L619.476 289.5L647.91 340.756Z" stroke="#2C2C2CB0" stroke-width="1.5"
              stroke-miterlimit="10" stroke-linejoin="round"/>
        <path d="M617.844 347.041C605.498 325.707 597.885 315.008 580.182 294.185C598.621 292.362 606.697 291.403 619.476 289.5C618.596 312.065 618.276 323.772 617.844 347.041Z"
              stroke="#2C2C2CB0" stroke-width="1.5" stroke-miterlimit="10" stroke-linejoin="round"/>
        <path d="M617.844 347.041C605.898 373.221 598.685 386.463 581.861 411.923C580.837 365.801 580.517 340.436 580.182 294.185C597.885 315.008 605.498 325.707 617.844 347.041Z"
              stroke="#2C2C2CB0" stroke-width="1.5" stroke-miterlimit="10" stroke-linejoin="round"/>
        <path d="M580.182 294.185C597.582 273.555 605.386 263.432 618.676 244.112C618.932 261.576 619.06 270.756 619.46 289.484C606.697 291.419 598.605 292.362 580.182 294.185Z"
              stroke="#2C2C2CB0" stroke-width="1.5" stroke-miterlimit="10" stroke-linejoin="round"/>
        <path d="M581.861 411.923C559.472 441.973 545.238 457.39 515.892 482.946C528.19 490.191 534.203 493.725 545.75 500.602C561.583 469.928 569.115 450.465 581.861 411.923Z"
              stroke="#2C2C2CB0" stroke-width="1.5" stroke-miterlimit="10" stroke-linejoin="round"/>
        <path d="M580.182 294.185C575.256 330.329 572.905 349.664 568.043 386.527C573.737 396.778 576.488 401.88 581.861 411.923C580.838 365.801 580.518 340.436 580.182 294.185Z"
              stroke="#2C2C2CB0" stroke-width="1.5" stroke-miterlimit="10" stroke-linejoin="round"/>
        <path d="M568.044 386.527C549.572 427.484 538.489 448.834 515.892 482.946C545.238 457.39 559.472 441.973 581.861 411.923C576.488 401.88 573.737 396.778 568.044 386.527Z"
              stroke="#2C2C2CB0" stroke-width="1.5" stroke-miterlimit="10" stroke-linejoin="round"/>
        <path d="M568.044 386.527C548.884 387.918 538.057 388.638 515.124 390.157C515.604 429.899 515.444 449.954 515.892 482.946C538.489 448.834 549.572 427.484 568.044 386.527Z"
              stroke="#2C2C2CB0" stroke-width="1.5" stroke-miterlimit="10" stroke-linejoin="round"/>
        <path d="M515.891 482.946C485.233 473.527 468.569 468.745 435.464 458.686C440.662 484.098 443.237 495.805 448.402 515.428C476.054 503.705 489.903 497.308 515.891 482.946Z"
              stroke="#2C2C2CB0" stroke-width="1.5" stroke-miterlimit="10" stroke-linejoin="round"/>
        <path d="M515.892 482.946C495.693 447.171 485.41 425.773 463.676 382.097C485.026 385.327 495.485 386.927 515.124 390.141C515.604 429.899 515.444 449.954 515.892 482.946Z"
              stroke="#2C2C2CB0" stroke-width="1.5" stroke-miterlimit="10" stroke-linejoin="round"/>
        <path d="M463.675 382.097C452.273 414.514 446.579 430.491 435.464 458.686C468.569 468.745 485.233 473.527 515.891 482.946C495.693 447.171 485.393 425.773 463.675 382.097Z"
              stroke="#2C2C2CB0" stroke-width="1.5" stroke-miterlimit="10" stroke-linejoin="round"/>
        <path d="M435.465 458.686C425.517 487.872 420.607 501.13 410.772 522.448C425.805 519.65 433.402 518.258 448.403 515.412C443.237 495.805 440.662 484.098 435.465 458.686Z"
              stroke="#2C2C2CB0" stroke-width="1.5" stroke-miterlimit="10" stroke-linejoin="round"/>
        <path d="M568.044 386.527C572.905 349.664 575.256 330.345 580.182 294.185C557.201 331.608 544.183 351.583 515.124 390.141C538.057 388.638 548.884 387.918 568.044 386.527Z"
              stroke="#2C2C2CB0" stroke-width="1.5" stroke-miterlimit="10" stroke-linejoin="round"/>
        <path d="M618.676 244.129C605.37 263.448 597.582 273.555 580.182 294.201C584.18 255.499 586.339 236.564 590.497 204.707L618.676 244.129Z"
              stroke="#2C2C2CB0" stroke-width="1.5" stroke-miterlimit="10" stroke-linejoin="round"/>
        <path d="M580.181 294.185C554.017 300.055 538.105 302.949 504.152 308.723C508.822 341.012 510.965 357.9 515.123 390.157C544.182 351.583 557.2 331.608 580.181 294.185Z"
              stroke="#2C2C2CB0" stroke-width="1.5" stroke-miterlimit="10" stroke-linejoin="round"/>
        <path d="M504.153 308.723C488.656 337.461 480.612 352.526 463.676 382.097C485.026 385.327 495.485 386.927 515.124 390.141C510.966 357.9 508.823 341.012 504.153 308.723Z"
              stroke="#2C2C2CB0" stroke-width="1.5" stroke-miterlimit="10" stroke-linejoin="round"/>
        <path d="M463.675 382.097C415.857 400.824 390.173 409.508 345.442 426.205C380.13 440.022 399.081 446.467 435.48 458.686C446.579 430.491 452.273 414.53 463.675 382.097Z"
              stroke="#2C2C2CB0" stroke-width="1.5" stroke-miterlimit="10" stroke-linejoin="round"/>
        <path d="M345.426 426.205C345.682 447.699 345.826 458.062 345.922 476.901C380.274 469.801 398.986 466.218 435.465 458.686C399.066 446.467 380.114 440.038 345.426 426.205Z"
              stroke="#2C2C2CB0" stroke-width="1.5" stroke-miterlimit="10" stroke-linejoin="round"/>
        <path d="M580.182 294.185C553.506 277.105 536.538 268.261 501.227 252.029C502.378 273.507 503.098 285.245 504.169 308.707C538.09 302.949 554.018 300.055 580.182 294.185Z"
              stroke="#2C2C2CB0" stroke-width="1.5" stroke-miterlimit="10" stroke-linejoin="round"/>
        <path d="M590.497 204.691C577.495 218.908 570.49 226.441 555.745 242.145C566.332 262.04 571.162 272.643 580.182 294.185C584.18 255.483 586.323 236.564 590.497 204.691Z"
              stroke="#2C2C2CB0" stroke-width="1.5" stroke-miterlimit="10" stroke-linejoin="round"/>
        <path d="M555.729 242.145C535.514 246.143 524.271 248.015 501.21 252.045C536.538 268.277 553.49 277.105 580.166 294.201C571.162 272.643 566.332 262.04 555.729 242.145Z"
              stroke="#2C2C2CB0" stroke-width="1.5" stroke-miterlimit="10" stroke-linejoin="round"/>
        <path d="M501.21 252.045C486.832 299.831 479.876 328.633 463.659 382.113C480.611 352.526 488.64 337.477 504.137 308.739C503.081 285.245 502.361 273.523 501.21 252.045Z"
              stroke="#2C2C2CB0" stroke-width="1.5" stroke-miterlimit="10" stroke-linejoin="round"/>
        <path d="M463.676 382.097C446.244 370.678 437.208 364.825 419.248 353.022C388.446 383.424 373.461 398.282 345.426 426.205C390.158 409.508 415.858 400.824 463.676 382.097Z"
              stroke="#2C2C2CB0" stroke-width="1.5" stroke-miterlimit="10" stroke-linejoin="round"/>
        <path d="M463.675 382.097C479.892 328.617 486.848 299.815 501.226 252.029C470.072 289.26 453.296 310.498 419.248 353.022C437.207 364.825 446.227 370.694 463.675 382.097Z"
              stroke="#2C2C2CB0" stroke-width="1.5" stroke-miterlimit="10" stroke-linejoin="round"/>
        <path d="M345.426 426.205C333.591 406.358 327.978 396.106 317.263 375.604C327.978 418.464 334.167 440.806 345.937 476.901C345.826 458.078 345.682 447.699 345.426 426.205Z"
              stroke="#2C2C2CB0" stroke-width="1.5" stroke-miterlimit="10" stroke-linejoin="round"/>
        <path d="M317.263 375.604C354.238 366.712 375.892 362.314 419.248 353.038C388.446 383.44 373.461 398.298 345.426 426.221C333.591 406.374 327.994 396.107 317.263 375.604Z"
              stroke="#2C2C2CB0" stroke-width="1.5" stroke-miterlimit="10" stroke-linejoin="round"/>
        <path d="M419.248 353.038C408.165 339.764 402.696 333.191 391.949 320.269C436.52 291.083 459.646 277.489 501.226 252.045C470.057 289.276 453.28 310.514 419.248 353.038Z"
              stroke="#2C2C2CB0" stroke-width="1.5" stroke-miterlimit="10" stroke-linejoin="round"/>
        <path d="M391.949 320.254C374.629 324.188 366.137 326.123 349.872 329.945C376.324 339.013 390.557 343.587 419.248 353.022C408.149 339.765 402.696 333.176 391.949 320.254Z"
              stroke="#2C2C2CB0" stroke-width="1.5" stroke-miterlimit="10" stroke-linejoin="round"/>
        <path d="M317.263 375.604C354.238 366.712 375.892 362.314 419.248 353.038C390.557 343.603 376.308 339.029 349.872 329.961C336.262 348.288 329.737 357.5 317.263 375.604Z"
              stroke="#2C2C2CB0" stroke-width="1.5" stroke-miterlimit="10" stroke-linejoin="round"/>
        <path d="M555.729 242.145C544.854 222.363 538.857 212.895 527.038 196.726C516.835 216.573 511.685 227.896 501.21 252.045C524.271 248.015 535.514 246.144 555.729 242.145Z"
              stroke="#2C2C2CB0" stroke-width="1.5" stroke-miterlimit="10" stroke-linejoin="round"/>
        <path d="M527.038 196.726C554.945 199.637 568.379 201.364 590.481 204.691C577.479 218.908 570.474 226.441 555.729 242.145C544.854 222.363 538.873 212.895 527.038 196.726Z"
              stroke="#2C2C2CB0" stroke-width="1.5" stroke-miterlimit="10" stroke-linejoin="round"/>
        <path d="M349.856 329.945C323.068 328.969 310.354 328.458 288.125 327.402C299.159 346.561 304.981 356.301 317.263 375.588C329.737 357.5 336.262 348.289 349.856 329.945Z"
              stroke="#2C2C2CB0" stroke-width="1.5" stroke-miterlimit="10" stroke-linejoin="round"/>
        <path d="M288.125 327.418C295.001 309.154 298.552 300.039 306.068 282.351C322.637 300.902 331.449 310.498 349.872 329.961C323.068 328.969 310.37 328.458 288.125 327.418Z"
              stroke="#2C2C2CB0" stroke-width="1.5" stroke-miterlimit="10" stroke-linejoin="round"/>
        <path d="M306.068 282.351C327.274 273.715 339.269 269.173 363.481 260.809C357.996 287.021 355.053 301.526 349.872 329.945C331.448 310.482 322.636 300.886 306.068 282.351Z"
              stroke="#2C2C2CB0" stroke-width="1.5" stroke-miterlimit="10" stroke-linejoin="round"/>
        <path d="M501.21 252.045C473.015 237.316 458.11 230.567 428.764 217.805C414.29 253.324 407.03 275.25 391.949 320.269C436.504 291.083 459.646 277.489 501.21 252.045Z"
              stroke="#2C2C2CB0" stroke-width="1.5" stroke-miterlimit="10" stroke-linejoin="round"/>
        <path d="M428.764 217.789C469.369 209.185 490.095 205.043 527.038 196.71C516.835 216.557 511.685 227.88 501.21 252.029C473.015 237.3 458.11 230.567 428.764 217.789Z"
              stroke="#2C2C2CB0" stroke-width="1.5" stroke-miterlimit="10" stroke-linejoin="round"/>
        <path d="M391.949 320.253C380.322 295.545 374.661 283.422 363.482 260.809C357.996 287.021 355.054 301.526 349.872 329.945C366.121 326.123 374.629 324.203 391.949 320.253Z"
              stroke="#2C2C2CB0" stroke-width="1.5" stroke-miterlimit="10" stroke-linejoin="round"/>
        <path d="M363.466 260.809C389.198 242.241 402.52 233.669 428.764 217.789C414.29 253.308 407.03 275.234 391.949 320.253C380.306 295.545 374.645 283.422 363.466 260.809Z"
              stroke="#2C2C2CB0" stroke-width="1.5" stroke-miterlimit="10" stroke-linejoin="round"/>
        <path d="M527.038 196.726C499.995 185.42 485.33 180.51 455.951 171.506C445.124 187.147 439.687 196.646 428.764 217.805C469.353 209.185 490.095 205.043 527.038 196.726Z"
              stroke="#2C2C2CB0" stroke-width="1.5" stroke-miterlimit="10" stroke-linejoin="round"/>
        <path d="M527.038 196.726C521.345 172.737 518.546 162.694 512.853 148.78C490.767 156.873 479.204 161.399 455.951 171.506C485.346 180.51 499.995 185.42 527.038 196.726Z"
              stroke="#2C2C2CB0" stroke-width="1.5" stroke-miterlimit="10" stroke-linejoin="round"/>
        <path d="M554.802 180.286C544.055 186.635 538.489 189.929 527.038 196.726C521.345 172.737 518.546 162.694 512.853 148.78L554.802 180.286Z"
              stroke="#2C2C2CB0" stroke-width="1.5" stroke-miterlimit="10" stroke-linejoin="round"/>
        <path d="M554.801 180.286C544.054 186.635 538.489 189.93 527.038 196.726C554.945 199.637 568.379 201.364 590.481 204.691L554.801 180.286Z"
              stroke="#2C2C2CB0" stroke-width="1.5" stroke-miterlimit="10" stroke-linejoin="round"/>
        <path d="M317.263 375.604C293.674 379.41 282.767 381.313 264.183 385.152C273.219 362.234 277.969 350.496 288.124 327.402C299.159 346.577 304.98 356.317 317.263 375.604Z"
              stroke="#2C2C2CB0" stroke-width="1.5" stroke-miterlimit="10" stroke-linejoin="round"/>
        <path d="M288.124 327.418C267.381 337.19 258.138 342.051 243.104 351.791C250.765 365.177 254.987 371.878 264.183 385.152C273.219 362.234 277.968 350.496 288.124 327.418Z"
              stroke="#2C2C2CB0" stroke-width="1.5" stroke-miterlimit="10" stroke-linejoin="round"/>
        <path d="M288.124 327.418C295.001 309.154 298.551 300.039 306.068 282.351C276.049 309.602 263.127 323.74 243.104 351.791C258.138 342.051 267.381 337.174 288.124 327.418Z"
              stroke="#2C2C2CB0" stroke-width="1.5" stroke-miterlimit="10" stroke-linejoin="round"/>
        <path d="M317.263 375.604C309.443 390.477 305.652 397.866 298.264 412.307C315.696 439.526 325.835 453.36 345.922 476.901C334.167 440.806 327.978 418.464 317.263 375.604Z"
              stroke="#2C2C2CB0" stroke-width="1.5" stroke-miterlimit="10" stroke-linejoin="round"/>
        <path d="M264.183 385.151C282.767 381.313 293.674 379.41 317.263 375.604C309.442 390.477 305.652 397.866 298.263 412.307L264.183 385.151Z"
              stroke="#2C2C2CB0" stroke-width="1.5" stroke-miterlimit="10" stroke-linejoin="round"/>
        <path d="M455.951 171.506C432.922 181.293 421.167 186.651 398.074 198.438C410.276 205.826 416.433 209.696 428.748 217.789C439.687 196.646 445.124 187.147 455.951 171.506Z"
              stroke="#2C2C2CB0" stroke-width="1.5" stroke-miterlimit="10" stroke-linejoin="round"/>
        <path d="M455.951 171.506C461.053 160.263 463.596 155.417 468.697 147.693C486.737 148.236 495.677 148.444 512.869 148.78C490.767 156.873 479.204 161.398 455.951 171.506Z"
              stroke="#2C2C2CB0" stroke-width="1.5" stroke-miterlimit="10" stroke-linejoin="round"/>
        <path d="M398.074 198.437C421.151 186.651 432.922 181.293 455.951 171.506C461.053 160.263 463.596 155.417 468.697 147.693L398.074 198.437Z"
              stroke="#2C2C2CB0" stroke-width="1.5" stroke-miterlimit="10" stroke-linejoin="round"/>
        <path d="M398.074 198.437C384.224 220.155 377.315 232.997 363.466 260.809C389.198 242.241 402.52 233.669 428.764 217.788C416.449 209.712 410.292 205.842 398.074 198.437Z"
              stroke="#2C2C2CB0" stroke-width="1.5" stroke-miterlimit="10" stroke-linejoin="round"/>
        <path d="M345.921 476.901C371.142 497.596 384.384 506.728 410.772 522.448C420.607 501.13 425.517 487.872 435.464 458.686C398.985 466.218 380.274 469.8 345.921 476.901Z"
              stroke="#2C2C2CB0" stroke-width="1.5" stroke-miterlimit="10" stroke-linejoin="round"/>
        <path d="M297.688 508.615C298.04 475.926 297.912 454.815 298.264 412.323C315.696 439.542 325.835 453.376 345.922 476.917C325.723 490.223 315.968 496.572 297.688 508.615Z"
              stroke="#2C2C2CB0" stroke-width="1.5" stroke-miterlimit="10" stroke-linejoin="round"/>
        <path d="M240.514 471.911C260.073 449.218 271.924 437.144 298.264 412.307C297.912 454.815 298.04 475.926 297.688 508.599L240.514 471.911Z"
              stroke="#2C2C2CB0" stroke-width="1.5" stroke-miterlimit="10" stroke-linejoin="round"/>
        <path d="M298.264 412.307C271.924 437.143 260.073 449.218 240.514 471.911C249.742 439.654 254.412 421.551 264.183 385.151L298.264 412.307Z"
              stroke="#2C2C2CB0" stroke-width="1.5" stroke-miterlimit="10" stroke-linejoin="round"/>
        <path d="M240.514 471.911C249.742 439.654 254.412 421.551 264.183 385.151C241.458 389.549 232.054 391.788 219.564 396.234L240.514 471.911Z"
              stroke="#2C2C2CB0" stroke-width="1.5" stroke-miterlimit="10" stroke-linejoin="round"/>
        <path d="M243.105 351.791C231.99 369.639 227.256 378.611 219.564 396.235C232.07 391.789 241.458 389.55 264.183 385.152C254.988 371.878 250.766 365.177 243.105 351.791Z"
              stroke="#2C2C2CB0" stroke-width="1.5" stroke-miterlimit="10" stroke-linejoin="round"/>
        <path d="M398.074 198.437C359.596 226.488 339.237 244.88 306.052 282.335C327.258 273.699 339.253 269.157 363.466 260.793C377.331 232.997 384.224 220.171 398.074 198.437Z"
              stroke="#2C2C2CB0" stroke-width="1.5" stroke-miterlimit="10" stroke-linejoin="round"/>
        <path d="M398.074 198.438C405.398 170.211 409.029 158.712 416.353 144.75C437.352 146.094 447.971 146.669 468.681 147.677L398.074 198.438Z"
              stroke="#2C2C2CB0" stroke-width="1.5" stroke-miterlimit="10" stroke-linejoin="round"/>
        <path d="M416.369 144.75C387.999 157.193 373.765 166.66 346.833 190.921C366.776 193.96 377.188 195.463 398.09 198.438C405.415 170.227 409.045 158.712 416.369 144.75Z"
              stroke="#2C2C2CB0" stroke-width="1.5" stroke-miterlimit="10" stroke-linejoin="round"/>
        <path d="M306.068 282.351C321.245 241.202 330.073 220.875 346.817 190.937C366.76 193.975 377.171 195.479 398.074 198.453C359.611 226.489 339.237 244.896 306.068 282.351Z"
              stroke="#2C2C2CB0" stroke-width="1.5" stroke-miterlimit="10" stroke-linejoin="round"/>
        <path d="M306.068 282.351C295.593 267.43 290.539 260.137 280.832 246.079C304.133 221.547 318.446 209.712 346.817 190.921C330.073 220.875 321.229 241.202 306.068 282.351Z"
              stroke="#2C2C2CB0" stroke-width="1.5" stroke-miterlimit="10" stroke-linejoin="round"/>
        <path d="M280.831 246.079C263.239 285.597 256.091 308.147 243.104 351.791C263.127 323.74 276.049 309.586 306.068 282.351C295.576 267.43 290.523 260.121 280.831 246.079Z"
              stroke="#2C2C2CB0" stroke-width="1.5" stroke-miterlimit="10" stroke-linejoin="round"/>
        <path d="M214.862 326.714C215.102 327.658 219.564 396.234 219.564 396.234C227.257 378.611 231.99 369.639 243.105 351.791L214.862 326.714Z"
              stroke="#2C2C2CB0" stroke-width="1.5" stroke-miterlimit="10" stroke-linejoin="round"/>
        <path d="M243.105 351.791C242.673 312.001 242.146 291.611 240.738 254.907C227.225 282.287 222.123 297.096 214.862 326.714L243.105 351.791Z"
              stroke="#2C2C2CB0" stroke-width="1.5" stroke-miterlimit="10" stroke-linejoin="round"/>
        <path d="M280.831 246.079C262.488 249.662 254.284 251.405 240.738 254.907C242.145 291.61 242.673 312.001 243.105 351.791C256.091 308.147 263.239 285.597 280.831 246.079Z"
              stroke="#2C2C2CB0" stroke-width="1.5" stroke-miterlimit="10" stroke-linejoin="round"/>
        <path d="M416.369 144.75C371.718 153.226 348.848 158.264 309.458 172.258C323.884 179.39 331.416 183.133 346.833 190.921C373.765 166.676 387.998 157.193 416.369 144.75Z"
              stroke="#2C2C2CB0" stroke-width="1.5" stroke-miterlimit="10" stroke-linejoin="round"/>
        <path d="M468.697 147.693C447.987 146.669 437.367 146.11 416.369 144.766L449.954 136.37L468.697 147.693Z"
              stroke="#2C2C2CB0" stroke-width="1.5" stroke-miterlimit="10" stroke-linejoin="round"/>
        <path d="M240.738 254.908C254.284 251.405 262.488 249.662 280.831 246.08C291.339 211.871 297.544 195.655 309.442 172.258L240.738 254.908Z"
              stroke="#2C2C2CB0" stroke-width="1.5" stroke-miterlimit="10" stroke-linejoin="round"/>
        <path d="M240.738 254.907C240.082 256.235 209.872 305.396 209.872 305.396C211.679 313.872 212.671 318.142 214.862 326.714C222.122 297.096 227.224 282.287 240.738 254.907Z"
              stroke="#2C2C2CB0" stroke-width="1.5" stroke-miterlimit="10" stroke-linejoin="round"/>
        <path d="M280.832 246.08C291.339 211.871 297.544 195.655 309.442 172.258C323.868 179.39 331.4 183.133 346.817 190.921C318.446 209.712 304.133 221.547 280.832 246.08Z"
              stroke="#2C2C2CB0" stroke-width="1.5" stroke-miterlimit="10" stroke-linejoin="round"/>
        <path d="M643.049 311.617L618.676 244.128L619.476 289.5L643.049 311.617Z" stroke="#2C2C2CB0" stroke-width="1.5"
              stroke-miterlimit="10" stroke-linejoin="round"/>
        <path d="M219.564 396.234L207.409 350.096L214.862 326.714L219.564 396.234Z" stroke="#2C2C2CB0"
              stroke-width="1.5" stroke-miterlimit="10" stroke-linejoin="round"/>
        <path d="M207.409 350.096L209.872 305.396L214.862 326.714L207.409 350.096Z" stroke="#2C2C2CB0"
              stroke-width="1.5" stroke-miterlimit="10" stroke-linejoin="round"/>
    </g>
    <g style="mix-blend-mode:overlay">
        <path d="M853.32 436.968L497.324 665.582L293.706 230.599L649.702 2L853.32 436.968Z" stroke="#2C2C2CB0"
              stroke-width="2.5" stroke-miterlimit="10" stroke-linecap="round" stroke-linejoin="round"/>
        <path d="M649.702 2L357.996 37.7275L2 266.326L293.706 230.599" stroke="#2C2C2CB0" stroke-width="2.5"
              stroke-miterlimit="10" stroke-linecap="round" stroke-linejoin="round"/>
        <path d="M2 266.326L205.618 701.31L497.324 665.583" stroke="#2C2C2CB0" stroke-width="2.5" stroke-miterlimit="10"
              stroke-linecap="round" stroke-linejoin="round"/>
        <path d="M853.32 436.968L561.614 472.695L357.996 37.7275" stroke="#2C2C2CB0" stroke-width="3"
              stroke-miterlimit="10" stroke-linejoin="round"/>
    </g>
</svg>
