<svg width="225" height="225" viewBox="40 -20 225 325" fill="none" xmlns="http://www.w3.org/2000/svg">
    <g style="mix-blend-mode:overlay">
        <path d="M174.066 235.522L118.891 181.871L91.1587 154.881C81.8986 145.882 72.6592 136.842 63.4403 127.788C63.145 127.499 63.1381 127.018 63.4335 126.723C63.5296 126.627 63.6533 126.558 63.7769 126.524L139.41 106.149L215.091 85.9732C215.496 85.8633 215.908 86.1037 216.018 86.5021C216.053 86.6326 216.053 86.7769 216.018 86.9006C212.556 99.3481 209.08 111.802 205.563 124.222L195.039 161.462L174.066 235.522ZM174.066 235.522L194.318 160.754L204.402 123.584C207.747 111.205 211.148 98.8534 214.555 86.5021L215.476 87.4295L139.843 107.804L64.1548 127.973L64.4914 126.709C73.6209 135.701 82.7298 144.7 91.825 153.754L119.145 180.902L174.066 235.522Z"
              fill="#2C2C2CB0"/>
        <path d="M2 109.92L41.9597 259.043L191.075 298.996L300.238 189.833L260.285 40.7171L111.163 0.757381L2 109.92Z"
              stroke="#2C2C2CB0" stroke-width="2.5" stroke-miterlimit="10" stroke-linecap="round"
              stroke-linejoin="round"/>
        <path d="M174.067 235.522L118.534 181.507L90.9323 154.654C81.7341 145.717 72.5839 136.759 63.4407 127.788L64.7115 127.376L53.8096 193.288L42.7086 259.167L41.8293 258.294C52.7861 256.357 63.736 254.427 74.7135 252.558L107.68 246.904L174.067 235.522ZM174.067 235.522L108.346 247.66L75.2562 253.767C64.2169 255.814 53.1433 257.806 42.0834 259.792C41.6713 259.867 41.2797 259.592 41.2042 259.18C41.1904 259.091 41.1904 259.002 41.2042 258.919L52.1129 193.007L63.2208 127.128C63.2895 126.716 63.6742 126.441 64.0864 126.51C64.2444 126.538 64.3818 126.613 64.4917 126.716C73.6968 135.784 82.9019 144.872 92.052 153.981L119.502 181.267L174.067 235.522Z"
              fill="#2C2C2CB0"/>
        <path d="M2 109.92L32.8577 118.102L48.4926 122.265C53.7203 123.645 58.948 125.074 64.1688 126.524C64.5397 126.627 64.7664 126.998 64.7115 127.376L53.8096 193.288L42.7085 259.166C42.6398 259.579 42.2551 259.86 41.843 259.792C41.5407 259.743 41.3071 259.517 41.2316 259.242L31.3121 221.776L21.4956 184.351L2 109.92ZM2 109.92L22.4642 184.612L32.631 221.748L42.6879 258.844L41.211 258.912L52.1197 193L63.2276 127.121L63.7703 127.973C58.6594 126.531 53.5623 125.081 48.4651 123.57L33.1187 119.063L2 109.92Z"
              fill="#2C2C2CB0"/>
        <path d="M260.286 40.7171L280.619 114.921L290.827 152.236C294.241 164.684 297.614 177.165 300.973 189.64C301.083 190.039 300.843 190.458 300.444 190.561C300.149 190.637 299.847 190.533 299.668 190.314L257.105 138.813L214.707 87.1822C214.459 86.8868 214.487 86.4472 214.748 86.1724C218.547 82.3117 222.359 78.4511 226.192 74.6454L237.657 63.2283L260.286 40.7171ZM260.286 40.7171L237.918 64.1969L226.879 75.772C223.218 79.6258 219.529 83.4315 215.819 87.2372L215.861 86.2274L258.417 137.728L300.815 189.359L299.51 190.032C296.206 177.653 292.922 165.281 289.673 152.875L279.905 115.629L260.286 40.7171Z"
              fill="#2C2C2CB0"/>
        <path d="M260.285 40.7171L185.374 21.091L148.128 11.3226C135.721 8.08019 123.342 4.78971 110.971 1.4855L111.644 0.180295L163.769 43.0733L215.764 86.1243L214.748 86.1793C218.471 82.3942 222.194 78.6228 225.972 74.8721L237.307 63.5856L260.285 40.7171ZM260.285 40.7171L238.269 63.8397L227.099 75.5453C223.376 79.4609 219.598 83.3559 215.819 87.2372C215.545 87.5188 215.098 87.5326 214.803 87.2921L162.677 44.3991L110.682 1.34124C110.359 1.0802 110.318 0.599333 110.579 0.283337C110.771 0.0497753 111.08 -0.0395279 111.355 0.0360363C123.83 3.38834 136.312 6.76125 148.76 10.1754L186.075 20.3834L260.285 40.7171Z"
              fill="#2C2C2CB0"/>
        <path d="M2 109.92L33.3386 118.232L48.7949 122.347C53.9401 123.707 59.051 125.102 64.1688 126.524L63.262 126.984L86.7625 63.7024L110.455 0.48945L111.699 1.28631L84.4406 28.3864L57.0657 55.4727L2 109.92ZM2 109.92L56.0971 55.2048L83.3071 27.7063L110.627 0.221541C110.922 -0.0738469 111.403 -0.0738469 111.699 0.221541C111.918 0.434494 111.973 0.75736 111.87 1.02527L88.3631 64.3069L64.6702 127.513C64.5328 127.884 64.1344 128.076 63.7635 127.973C58.5495 126.503 53.3356 125.019 48.1491 123.487L32.6241 118.933L2 109.92Z"
              fill="#2C2C2CB0"/>
        <path d="M174.066 235.522L237.252 212.186L268.632 200.604C279.08 196.737 289.522 192.924 299.984 189.125L299.661 190.314L257.098 138.813L214.699 87.1822L216.011 86.9006C212.577 99.245 209.135 111.576 205.639 123.913L195.163 160.967L174.066 235.522ZM174.066 235.522L194.194 161.249L204.32 123.893C207.693 111.425 211.113 98.9565 214.555 86.5021C214.665 86.1037 215.084 85.8633 215.482 85.9732C215.64 86.0144 215.771 86.1037 215.867 86.2205L258.424 137.721L300.822 189.352C301.09 189.675 301.042 190.149 300.719 190.41C300.65 190.465 300.575 190.506 300.492 190.54C289.92 194.36 279.341 198.159 268.755 201.909L237.053 213.168L174.066 235.522Z"
              fill="#2C2C2CB0"/>
        <path d="M174.066 235.522L236.826 212.303L268.371 200.693C278.888 196.812 289.439 192.958 299.984 189.132C300.375 188.988 300.808 189.194 300.946 189.586C301.049 189.867 300.966 190.176 300.767 190.376L246.258 245.029L191.604 299.538C191.309 299.834 190.835 299.834 190.539 299.538C190.443 299.442 190.375 299.319 190.34 299.195C188.925 293.864 187.517 288.52 186.164 283.182L182.069 267.204C180.695 261.887 179.363 256.584 178.037 251.301L174.066 235.522ZM174.066 235.522L178.593 251.48C180.105 256.783 181.602 262.059 183.065 267.321L187.476 283.079C188.953 288.321 190.381 293.562 191.803 298.81L190.539 298.474L245.049 243.82L299.702 189.311L300.492 190.554C290.016 194.339 279.533 198.104 269.023 201.834L237.479 213.065L174.066 235.522Z"
              fill="#2C2C2CB0"/>
        <path d="M111.163 0.757381L161.791 189.689L41.9597 259.043L2 109.92L111.163 0.757381Z" stroke="#2C2C2CB0"
              stroke-miterlimit="10" stroke-linecap="round" stroke-linejoin="round"/>
        <path d="M111.163 0.757381L161.791 189.689L300.238 189.833L260.285 40.7171L111.163 0.757381Z" stroke="#2C2C2CB0"
              stroke-miterlimit="10" stroke-linecap="round" stroke-linejoin="round"/>
    </g>
</svg>
