<svg width="274" height="56" viewBox="0 0 274 56" fill="none" xmlns="http://www.w3.org/2000/svg">
    <path d="M73.0223 42.1313H66.7922V13.0449H76.7992C78.6293 13.0449 80.2841 13.2396 81.7443 13.629C83.2044 14.0184 84.4699 14.6024 85.5018 15.4006C86.5336 16.1989 87.3318 17.2112 87.8964 18.4378C88.4416 19.6643 88.7336 21.1245 88.7336 22.7793C88.7336 24.4147 88.4416 25.8749 87.877 27.1403C87.3124 28.4058 86.4947 29.4961 85.4044 30.3527C84.3142 31.2288 83.0098 31.8907 81.4523 32.3385C79.8947 32.7863 78.162 33.0199 76.2151 33.0199H73.0223V42.1313ZM72.886 27.5492H76.293C78.1815 27.5492 79.6416 27.1793 80.693 26.4395C81.7443 25.6996 82.2699 24.5705 82.2699 23.013C82.2699 21.3776 81.7638 20.2289 80.7319 19.5475C79.7001 18.8661 78.2399 18.5351 76.332 18.5351H72.886V27.5492Z"
          fill="white"/>
    <path d="M107.598 42.637C105.496 42.637 103.568 42.306 101.836 41.6635C100.103 41.0211 98.6232 40.0477 97.3772 38.7822C96.1312 37.5167 95.1577 35.9397 94.4958 34.0707C93.8144 32.2017 93.4834 30.0407 93.4834 27.6071C93.4834 25.1735 93.8338 23.0124 94.5347 21.1434C95.2356 19.2744 96.209 17.6975 97.455 16.432C98.701 15.1665 100.181 14.1931 101.874 13.5506C103.588 12.9081 105.437 12.5771 107.423 12.5771C109.662 12.5771 111.667 12.9276 113.419 13.609C115.172 14.3099 116.651 15.2833 117.858 16.5877C119.065 17.8727 119.98 19.4496 120.623 21.3186C121.265 23.1876 121.577 25.2903 121.577 27.6071C121.577 30.1769 121.226 32.4159 120.526 34.3238C119.825 36.2123 118.832 37.7893 117.566 39.0158C116.301 40.2423 114.821 41.1574 113.127 41.7609C111.434 42.3449 109.584 42.637 107.598 42.637ZM107.793 37.1468C108.844 37.1468 109.818 36.9521 110.694 36.5627C111.589 36.1733 112.349 35.5893 112.972 34.7911C113.614 33.9929 114.101 33.0194 114.451 31.8123C114.802 30.6248 114.977 29.2035 114.977 27.5681C114.977 24.2779 114.276 21.8443 112.894 20.3063C111.512 18.7682 109.681 18.009 107.404 18.009C106.372 18.009 105.418 18.2036 104.522 18.593C103.627 18.9824 102.848 19.5665 102.166 20.3647C101.505 21.1629 100.979 22.1558 100.609 23.3629C100.239 24.5699 100.044 25.9717 100.044 27.5876C100.044 29.223 100.239 30.6442 100.648 31.8318C101.057 33.0194 101.602 34.0123 102.283 34.8105C102.984 35.6087 103.802 36.1928 104.736 36.5822C105.71 36.9521 106.722 37.1468 107.793 37.1468Z"
          fill="white"/>
    <path d="M149.535 40.9825C149.145 41.1772 148.717 41.3719 148.269 41.5665C147.821 41.7612 147.276 41.9365 146.653 42.1117C146.03 42.2674 145.31 42.4037 144.492 42.5011C143.675 42.5984 142.74 42.6373 141.689 42.6373C139.469 42.6373 137.464 42.3259 135.634 41.6834C133.823 41.0409 132.266 40.1064 130.981 38.8799C129.696 37.6534 128.703 36.1153 127.983 34.2852C127.282 32.4552 126.931 30.3526 126.931 27.9774C126.931 25.4853 127.282 23.2659 127.983 21.3385C128.684 19.4111 129.715 17.7951 131.039 16.4907C132.363 15.1863 133.979 14.2129 135.887 13.5315C137.776 12.8695 139.917 12.5386 142.312 12.5386C143.889 12.5386 145.31 12.6749 146.575 12.9474C147.841 13.22 148.853 13.551 149.632 13.9014L148.269 19.1385C147.374 18.827 146.478 18.6128 145.563 18.4766C144.648 18.3403 143.869 18.2624 143.188 18.2624C141.747 18.2624 140.443 18.4376 139.255 18.8075C138.068 19.1774 137.075 19.7225 136.218 20.5013C135.381 21.2606 134.719 22.234 134.252 23.4216C133.784 24.6092 133.551 25.9915 133.551 27.6074C133.551 30.6835 134.407 33.0003 136.14 34.5578C137.873 36.1153 140.209 36.894 143.149 36.894C143.811 36.894 144.609 36.7967 145.563 36.6215C146.498 36.4463 147.413 36.1543 148.308 35.7649L149.535 40.9825Z"
          fill="white"/>
    <path d="M173.21 35.7846H162.035L159.951 42.1508H153.799L163.728 13.0645H171.827L181.64 42.1508H175.273L173.21 35.7846ZM163.748 30.2944H171.516L167.642 18.0679L163.748 30.2944Z"
          fill="white"/>
    <path d="M195.832 42.1308H189.602V18.7682H181.328V13.0249H204.067V18.7682H195.832V42.1308Z" fill="white"/>
    <path d="M221.101 42.637C218.999 42.637 217.071 42.306 215.339 41.6635C213.606 41.0211 212.126 40.0477 210.88 38.7822C209.634 37.5167 208.661 35.9397 207.999 34.0707C207.318 32.2017 206.987 30.0407 206.987 27.6071C206.987 25.1735 207.337 23.0124 208.038 21.1434C208.739 19.2744 209.712 17.6975 210.958 16.432C212.204 15.1665 213.684 14.1931 215.378 13.5506C217.091 12.9081 218.94 12.5771 220.926 12.5771C223.165 12.5771 225.17 12.9276 226.923 13.609C228.675 14.3099 230.174 15.2833 231.362 16.5877C232.569 17.8727 233.484 19.4496 234.126 21.3186C234.769 23.1876 235.08 25.2903 235.08 27.6071C235.08 30.1769 234.73 32.4159 234.029 34.3238C233.328 36.2123 232.335 37.7893 231.069 39.0158C229.804 40.2423 228.324 41.1574 226.631 41.7609C224.937 42.3449 223.087 42.637 221.101 42.637ZM221.316 37.1468C222.367 37.1468 223.34 36.9521 224.216 36.5627C225.112 36.1733 225.871 35.5893 226.494 34.7911C227.137 33.9929 227.624 33.0194 227.974 31.8123C228.324 30.6248 228.5 29.2035 228.5 27.5681C228.5 24.2779 227.799 21.8443 226.416 20.3063C225.034 18.7682 223.204 18.009 220.926 18.009C219.894 18.009 218.94 18.2036 218.045 18.593C217.149 18.9824 216.371 19.5665 215.689 20.3647C215.027 21.1629 214.502 22.1558 214.132 23.3629C213.762 24.5699 213.567 25.9717 213.567 27.5876C213.567 29.223 213.762 30.6442 214.171 31.8318C214.579 33.0194 215.125 34.0123 215.806 34.8105C216.507 35.6087 217.324 36.1928 218.259 36.5822C219.213 36.9521 220.225 37.1468 221.316 37.1468Z"
          fill="white"/>
    <path d="M274 42.1313H267.731L266.154 22.7988L260.177 42.1313H254.239L248.34 22.8961L246.763 42.1313H240.494L243.395 13.0449H250.832L257.393 34.9863L263.876 13.0449H271.06L274 42.1313Z"
          fill="white"/>
    <path d="M33.3827 27.587C33.3827 30.7993 30.7739 33.3887 27.581 33.3692C24.3881 33.3692 21.7793 30.7604 21.7793 27.5675C21.7793 24.3551 24.3881 21.7658 27.581 21.7853C30.7934 21.7853 33.3827 24.3941 33.3827 27.587Z"
          fill="white"/>
    <path d="M27.6395 0C23.4537 0 19.482 0.934489 15.9387 2.58934C20.6696 2.10262 25.5758 4.14686 29.197 7.78753C31.0076 9.57866 32.604 11.8954 33.9474 14.699C41.6376 16.0812 46.8552 12.2653 48.9189 9.98749C43.857 3.87428 36.2058 0 27.6395 0Z"
          fill="white"/>
    <path d="M10.995 5.56834C7.19856 8.43025 4.18089 12.2461 2.27295 16.6461C4.57027 17.2107 11.4428 19.4496 14.5967 27.9575C15.5507 27.646 17.5949 26.4584 19.0161 21.8637C20.7489 16.2372 23.9223 10.8054 28.0497 8.39131C23.5134 3.99136 16.6215 2.06395 10.995 5.56834Z"
          fill="white"/>
    <path d="M51.5886 41.3904C53.6717 37.7692 54.8593 33.8755 55.1903 29.9817C53.2434 34.3038 49.0382 37.5356 44.0347 38.84C41.5816 39.5214 38.7586 39.7161 35.6631 39.502C30.6207 45.4594 31.3215 51.8841 32.256 54.8044C40.102 53.4611 47.3054 48.7886 51.5886 41.3904Z"
          fill="white"/>
    <path d="M55.0728 24.2188C54.4887 19.5073 52.6976 14.9906 49.8357 11.1357C48.2003 12.8295 42.8269 17.6578 33.8712 16.1392C33.6571 17.1127 33.6766 19.4684 36.9473 22.9923C40.9579 27.3143 44.0924 32.7656 44.1118 37.5355C50.1861 35.8222 55.3064 30.8187 55.0728 24.2188Z"
          fill="white"/>
    <path d="M3.7123 41.3917C5.79546 45.0129 8.59897 47.9722 11.8113 50.2111C9.02728 46.3758 8.34587 41.0997 9.68922 36.1352C10.3317 33.6821 11.5582 31.1317 13.3104 28.5813C10.6627 21.2415 4.74414 18.6327 1.74595 17.9902C-1.0381 25.4273 -0.570843 33.9741 3.7123 41.3917Z"
          fill="white"/>
    <path d="M16.8546 52.9955C21.2351 54.8451 26.0439 55.5459 30.8332 55.0008C30.1712 52.7229 28.6721 45.6753 34.4739 38.686C33.734 38.024 31.6703 36.8559 26.9784 37.9072C21.2156 39.2116 14.9272 39.1922 10.7803 36.8364C9.24227 42.9691 11.0139 49.8805 16.8546 52.9955Z"
          fill="white"/>
</svg>
