<svg width="80" height="19" viewBox="0 -5 126 29" fill="none" xmlns="http://www.w3.org/2000/svg">
    <path d="M22.075 18H19.15L17.1 5.325L11.425 17.725H10.7L5 5.325L2.95 18H0.025L2.875 0.499999H5.7L11.05 12.4L16.4 0.499999H19.25L22.075 18ZM36.0637 0.499999V3.175H30.9137V18H28.0637V3.175H22.9137V0.499999H36.0637ZM45.9652 18.3C43.3819 18.3 41.2319 17.45 39.5152 15.75C37.8152 14.0333 36.9652 11.8667 36.9652 9.25C36.9652 6.63333 37.8152 4.475 39.5152 2.775C41.2319 1.05833 43.3819 0.2 45.9652 0.2C47.3319 0.2 48.5986 0.466666 49.7652 1C50.9319 1.53333 51.9069 2.29167 52.6902 3.275C53.4902 4.25833 54.0402 5.4 54.3402 6.7H51.4402C51.0236 5.53333 50.3319 4.625 49.3652 3.975C48.3986 3.30833 47.2652 2.975 45.9652 2.975C44.2152 2.975 42.7652 3.56667 41.6152 4.75C40.4652 5.93333 39.8902 7.44167 39.8902 9.275C39.8902 11.0917 40.4652 12.5917 41.6152 13.775C42.7652 14.9417 44.2152 15.525 45.9652 15.525C47.2986 15.525 48.4569 15.175 49.4402 14.475C50.4236 13.7583 51.1069 12.7833 51.4902 11.55H54.4152C53.9652 13.6 52.9736 15.2417 51.4402 16.475C49.9069 17.6917 48.0819 18.3 45.9652 18.3ZM66.7744 0.499999H77.9494V18H75.0744V3.175H69.3494L68.5244 12.1C68.1411 16.05 66.2577 18.025 62.8744 18.025H62.0494V15.2H62.8744C64.5077 15.2 65.4161 14.2 65.5994 12.2L66.7744 0.499999ZM92.0029 4.5H93.5529V18H90.9029V9.425L83.7029 18H82.1029V4.5H84.7779V13L92.0029 4.5ZM106.508 4.5H109.233V18H106.508V12.35H100.258V18H97.5082V4.5H100.258V9.8H106.508V4.5ZM121.682 18L117.632 12.25H115.957V18H113.182V4.5H115.957V9.725H117.657L121.332 4.5H124.607L120.032 10.975L125.107 18H121.682Z"
          fill="white"/>
</svg>
