<svg width="198" height="46" viewBox="0 0 198 46" fill="none" xmlns="http://www.w3.org/2000/svg">
    <path d="M28.0115 27.9977C29.8575 26.1466 31.1136 23.79 31.621 21.2254C32.1284 18.6609 31.8644 16.0035 30.8623 13.589C29.8602 11.1744 28.1651 9.11099 25.9909 7.65933C23.8167 6.20768 21.2611 5.43292 18.6469 5.43292C16.0327 5.43292 13.4771 6.20768 11.3029 7.65933C9.12876 9.11099 7.43358 11.1744 6.43152 13.589C5.42945 16.0035 5.16545 18.6609 5.67285 21.2254C6.18025 23.79 7.4363 26.1466 9.28233 27.9977C9.57184 28.288 9.96403 28.4528 10.3741 28.4563C10.6845 28.4729 10.9924 28.3924 11.255 28.2259C11.5175 28.0595 11.7217 27.8153 11.839 27.5274C11.9564 27.2395 11.9811 26.9222 11.9097 26.6196C11.8384 26.317 11.6745 26.0442 11.4409 25.8391C10.0237 24.4082 9.0621 22.5896 8.67737 20.6128C8.29264 18.636 8.50202 16.5895 9.27912 14.7315C10.0562 12.8736 11.3662 11.2874 13.0438 10.1732C14.7214 9.05891 16.6914 8.46649 18.7053 8.47066C20.7192 8.47482 22.6868 9.07539 24.3597 10.1966C26.0327 11.3178 27.3361 12.9093 28.1055 14.7705C28.8749 16.6316 29.0758 18.679 28.6829 20.6542C28.29 22.6294 27.3209 24.444 25.8978 25.869L12.6423 39.0746L14.7859 41.2182L28.0115 27.9977ZM8.03605 30.7893C8.03432 30.5839 7.99203 30.3808 7.91162 30.1917C7.8312 30.0027 7.71424 29.8314 7.56744 29.6876C5.38518 27.4969 3.90137 24.7083 3.30356 21.6745C2.70574 18.6406 3.02076 15.4976 4.20879 12.6428C5.39683 9.78793 7.40454 7.34935 9.97818 5.63527C12.5518 3.9212 15.5758 3.00858 18.668 3.01276C21.7602 3.01694 24.7818 3.93773 27.3508 5.65875C29.9197 7.37978 31.9209 9.82378 33.1012 12.6818C34.2815 15.5399 34.588 18.6837 33.982 21.716C33.376 24.7482 31.8846 27.5327 29.6965 29.7175L16.4908 42.9232L18.6444 45.0767L31.8799 31.8611C34.4882 29.2491 36.2637 25.9225 36.9819 22.3018C37.7001 18.681 37.3288 14.9286 35.915 11.5187C34.5012 8.10892 32.1083 5.19474 29.0387 3.1445C25.9691 1.09427 22.3607 0 18.6693 0C14.978 0 11.3696 1.09427 8.29998 3.1445C5.2304 5.19474 2.83749 8.10892 1.42367 11.5187C0.00985319 14.9286 -0.361414 18.681 0.356792 22.3018C1.075 25.9225 2.85044 29.2491 5.45873 31.8611C5.66994 32.077 5.94065 32.2251 6.23633 32.2865C6.53202 32.3479 6.8393 32.3198 7.11899 32.2059C7.39868 32.092 7.63811 31.8974 7.80677 31.6469C7.97542 31.3964 8.06565 31.1013 8.06596 30.7993L8.03605 30.7893ZM26.4262 18.6655C26.4262 17.1262 25.9697 15.6215 25.1144 14.3416C24.2591 13.0618 23.0435 12.0644 21.6212 11.4756C20.199 10.8867 18.6341 10.7329 17.1244 11.0336C15.6148 11.3342 14.2282 12.0759 13.1401 13.1647C12.052 14.2535 11.3112 15.6405 11.0115 17.1504C10.7118 18.6602 10.8667 20.2251 11.4564 21.6469C12.0462 23.0688 13.0443 24.2838 14.3247 25.1382C15.6051 25.9927 17.1101 26.4483 18.6494 26.4473C20.7116 26.4433 22.6881 25.622 24.1458 24.1634C25.6035 22.7047 26.4236 20.7277 26.4262 18.6655ZM13.9036 18.6655C13.9065 17.7275 14.1874 16.8114 14.7106 16.0329C15.2339 15.2544 15.9761 14.6485 16.8436 14.2916C17.711 13.9347 18.6648 13.8428 19.5844 14.0276C20.504 14.2124 21.3482 14.6656 22.0105 15.3299C22.6727 15.9942 23.1232 16.8399 23.3051 17.7601C23.487 18.6803 23.3922 19.6337 23.0325 20.5C22.6729 21.3664 22.0646 22.1067 21.2845 22.6275C20.5044 23.1483 19.5874 23.4263 18.6494 23.4263C17.3889 23.4236 16.1811 22.9207 15.2912 22.0281C14.4013 21.1354 13.9022 19.9259 13.9036 18.6655Z"
          fill="white"/>
    <path d="M93.6956 23.4257L96.4623 15.0208H97.8881L99.8323 20.7088H99.8572L101.781 15.0208H103.207L105.944 23.4257H103.915L102.42 18.5253L100.675 23.4257H98.9798L97.23 18.5253H97.1852L95.6896 23.4257H93.6956Z"
          fill="white"/>
    <path d="M106.468 20.3605C106.451 19.9425 106.519 19.5255 106.667 19.1343C106.815 18.7432 107.041 18.3861 107.331 18.0845C107.621 17.7828 107.969 17.5428 108.354 17.3788C108.738 17.2149 109.153 17.1304 109.571 17.1304C109.989 17.1304 110.403 17.2149 110.788 17.3788C111.173 17.5428 111.521 17.7828 111.81 18.0845C112.1 18.3861 112.326 18.7432 112.475 19.1343C112.623 19.5255 112.691 19.9425 112.674 20.3605C112.691 20.7785 112.623 21.1956 112.475 21.5867C112.326 21.9778 112.1 22.3349 111.81 22.6366C111.521 22.9382 111.173 23.1782 110.788 23.3422C110.403 23.5061 109.989 23.5907 109.571 23.5907C109.153 23.5907 108.738 23.5061 108.354 23.3422C107.969 23.1782 107.621 22.9382 107.331 22.6366C107.041 22.3349 106.815 21.9778 106.667 21.5867C106.519 21.1956 106.451 20.7785 106.468 20.3605ZM110.85 20.3605C110.85 19.4233 110.351 18.7653 109.578 18.7653C108.806 18.7653 108.292 19.4233 108.292 20.3605C108.292 21.2977 108.791 21.9956 109.578 21.9956C110.366 21.9956 110.85 21.2728 110.85 20.3605Z"
          fill="white"/>
    <path d="M113.565 20.3608C113.565 18.5113 114.751 17.2002 116.556 17.2002C116.977 17.1792 117.399 17.2429 117.795 17.3876C118.192 17.5323 118.555 17.7551 118.864 18.0427L117.747 19.1494C117.604 19.0123 117.434 18.9061 117.248 18.8375C117.062 18.7689 116.863 18.7393 116.665 18.7506C115.873 18.7506 115.389 19.4236 115.389 20.3608C115.389 21.298 115.888 21.9959 116.665 21.9959C116.862 22.0063 117.059 21.9778 117.245 21.9119C117.43 21.846 117.601 21.7441 117.747 21.6121L118.864 22.7138C118.556 23.0024 118.192 23.2257 117.796 23.3705C117.399 23.5153 116.977 23.5785 116.556 23.5563C114.751 23.5563 113.565 22.2452 113.565 20.3608Z"
          fill="white"/>
    <path d="M122.045 16.6116H119.438V15.0063H126.916L126.343 16.6116H123.93V23.4262H122.065L122.045 16.6116Z"
          fill="white"/>
    <path d="M129.448 25.6347H127.694V17.3444H129.448V17.9426C129.656 17.6945 129.919 17.4979 130.216 17.3682C130.512 17.2385 130.835 17.1792 131.158 17.1948C132.739 17.1948 133.93 18.5059 133.93 20.3554C133.93 22.2049 132.739 23.5509 131.158 23.5509C130.835 23.5666 130.512 23.5073 130.216 23.3775C129.919 23.2478 129.656 23.0512 129.448 22.8031V25.6347ZM130.754 21.9706C131.562 21.9706 132.125 21.2876 132.125 20.3504C132.155 20.1527 132.141 19.9511 132.085 19.7592C132.029 19.5672 131.933 19.3896 131.802 19.2383C131.672 19.087 131.51 18.9656 131.329 18.8824C131.147 18.7992 130.949 18.7562 130.749 18.7562C130.55 18.7562 130.352 18.7992 130.17 18.8824C129.989 18.9656 129.827 19.087 129.697 19.2383C129.566 19.3896 129.47 19.5672 129.414 19.7592C129.358 19.9511 129.344 20.1527 129.374 20.3504C129.374 21.2876 129.952 21.9706 130.754 21.9706Z"
          fill="white"/>
    <path d="M134.794 21.5116C134.794 20.5545 135.601 19.5176 137.471 19.5176C137.812 19.5143 138.154 19.5343 138.493 19.5774V19.4926C138.493 18.9293 138.039 18.7249 137.521 18.7249C137.016 18.7326 136.524 18.8867 136.105 19.1686L135.073 18.1367C135.771 17.5301 136.666 17.1971 137.591 17.1995C139.176 17.1995 140.248 18.1018 140.248 19.5574V23.4259H138.518V22.7978H138.493C138.316 23.0605 138.07 23.27 137.783 23.4035C137.496 23.537 137.178 23.5896 136.863 23.5555C136.59 23.5658 136.319 23.5202 136.065 23.4215C135.811 23.3227 135.58 23.173 135.386 22.9814C135.192 22.7899 135.039 22.5606 134.938 22.3078C134.836 22.055 134.787 21.7841 134.794 21.5116ZM138.493 21.0929V20.8885C138.24 20.8357 137.983 20.8073 137.725 20.8037C136.923 20.8037 136.584 21.0929 136.574 21.5016C136.564 21.9104 136.873 22.1996 137.411 22.1846C137.556 22.1903 137.7 22.1659 137.834 22.1129C137.969 22.0599 138.091 21.9796 138.192 21.8769C138.294 21.7742 138.373 21.6515 138.425 21.5165C138.477 21.3815 138.5 21.2372 138.493 21.0929Z"
          fill="white"/>
    <path d="M141.846 17.3438H143.596V19.5771H145.59V17.3438H147.345V23.4256H145.59V21.1325H143.596V23.4256H141.846V17.3438Z"
          fill="white"/>
    <path d="M148.622 20.3608C148.622 18.5113 149.813 17.2002 151.613 17.2002C152.034 17.1792 152.456 17.2429 152.852 17.3876C153.249 17.5323 153.612 17.7551 153.921 18.0427L152.804 19.1494C152.661 19.0123 152.491 18.9061 152.305 18.8375C152.119 18.7689 151.921 18.7393 151.723 18.7506C150.93 18.7506 150.451 19.4236 150.451 20.3608C150.451 21.298 150.95 21.9959 151.723 21.9959C151.919 22.0063 152.116 21.9778 152.302 21.9119C152.487 21.846 152.658 21.7441 152.804 21.6121L153.921 22.7138C153.613 23.0024 153.25 23.2257 152.853 23.3705C152.456 23.5153 152.035 23.5785 151.613 23.5563C149.813 23.5563 148.622 22.2452 148.622 20.3608Z"
          fill="white"/>
    <path d="M155.208 15.0063H162.491V23.4262H160.641V16.6365H157.042V23.4262H155.217L155.208 15.0063Z" fill="white"/>
    <path d="M166.135 25.6345H164.385V17.3442H166.135V17.9424H166.16C166.367 17.695 166.629 17.4988 166.925 17.3691C167.22 17.2394 167.542 17.1797 167.865 17.1946C169.45 17.1946 170.641 18.5057 170.641 20.3552C170.641 22.2047 169.45 23.5507 167.865 23.5507C167.542 23.5656 167.22 23.5059 166.925 23.3762C166.629 23.2465 166.367 23.0503 166.16 22.8029H166.135V25.6345ZM167.446 21.9704C168.253 21.9704 168.817 21.2874 168.817 20.3502C168.846 20.1525 168.832 19.9508 168.777 19.7589C168.721 19.567 168.624 19.3894 168.494 19.2381C168.363 19.0868 168.202 18.9654 168.02 18.8822C167.838 18.799 167.641 18.7559 167.441 18.7559C167.241 18.7559 167.044 18.799 166.862 18.8822C166.68 18.9654 166.519 19.0868 166.388 19.2381C166.257 19.3894 166.161 19.567 166.105 19.7589C166.049 19.9508 166.036 20.1525 166.065 20.3502C166.065 21.2874 166.643 21.9704 167.446 21.9704Z"
          fill="white"/>
    <path d="M171.533 20.3605C171.516 19.9425 171.584 19.5255 171.732 19.1343C171.88 18.7432 172.106 18.3861 172.396 18.0845C172.686 17.7828 173.034 17.5428 173.419 17.3788C173.803 17.2149 174.217 17.1304 174.636 17.1304C175.054 17.1304 175.468 17.2149 175.853 17.3788C176.238 17.5428 176.586 17.7828 176.875 18.0845C177.165 18.3861 177.391 18.7432 177.539 19.1343C177.688 19.5255 177.756 19.9425 177.739 20.3605C177.756 20.7785 177.688 21.1956 177.539 21.5867C177.391 21.9778 177.165 22.3349 176.875 22.6366C176.586 22.9382 176.238 23.1782 175.853 23.3422C175.468 23.5061 175.054 23.5907 174.636 23.5907C174.217 23.5907 173.803 23.5061 173.419 23.3422C173.034 23.1782 172.686 22.9382 172.396 22.6366C172.106 22.3349 171.88 21.9778 171.732 21.5867C171.584 21.1956 171.516 20.7785 171.533 20.3605ZM175.914 20.3605C175.914 19.4233 175.416 18.7653 174.643 18.7653C173.871 18.7653 173.357 19.4233 173.357 20.3605C173.357 21.2977 173.856 21.9956 174.643 21.9956C175.431 21.9956 175.914 21.2728 175.914 20.3605Z"
          fill="white"/>
    <path d="M178.617 20.37C178.617 18.5205 179.859 17.1995 181.608 17.1995C183.268 17.1995 184.54 18.1965 184.54 20.5295V20.9333H180.517C180.578 21.2458 180.753 21.5242 181.009 21.7149C181.264 21.9055 181.58 21.9947 181.897 21.9653C182.134 21.9763 182.37 21.9341 182.589 21.8418C182.807 21.7494 183.002 21.6094 183.159 21.4318L184.285 22.5585C183.946 22.8914 183.543 23.1515 183.1 23.323C182.656 23.4944 182.183 23.5736 181.708 23.5555C181.292 23.5643 180.878 23.4871 180.493 23.3289C180.107 23.1707 179.759 22.9348 179.469 22.6358C179.179 22.3369 178.954 21.9815 178.807 21.5916C178.661 21.2018 178.596 20.7859 178.617 20.37ZM182.705 19.687C182.709 19.5413 182.683 19.3961 182.629 19.2608C182.575 19.1254 182.493 19.0027 182.389 18.9002C182.286 18.7978 182.162 18.7179 182.026 18.6654C181.89 18.6129 181.744 18.5891 181.598 18.5953C181.311 18.6073 181.039 18.7257 180.834 18.9275C180.63 19.1293 180.508 19.4001 180.492 19.687H182.705Z"
          fill="white"/>
    <path d="M185.806 17.3438H187.555V19.6369H187.82L189.25 17.3438H191.244L189.3 20.3348L191.494 23.4256H189.36L187.75 21.1175H187.555V23.4256H185.806V17.3438Z"
          fill="white"/>
    <path d="M193.493 18.8692H191.713V17.3438H197.167L196.604 18.8692H195.248V23.4256H193.493V18.8692Z" fill="white"/>
    <path d="M57.0242 17.5883C58.6892 17.4986 60.3692 16.5364 60.3692 14.0638V9.89624H63.0512V14.0638C63.0512 17.6382 60.5885 20.1507 57.0242 20.2703V17.5883ZM73.9337 16.1476C70.3694 16.2672 67.9067 18.7847 67.9067 22.3541V26.5366H70.5887V22.3541C70.5887 19.8615 72.2687 18.9193 73.9337 18.8296V16.1476ZM66.8499 9.89624H64.108V26.5366H66.8499V9.89624Z"
          fill="white"/>
    <path d="M63.316 42.9232L65.4695 45.0717L78.6851 31.8611C81.2934 29.2491 83.0689 25.9225 83.7871 22.3018C84.5053 18.681 84.134 14.9286 82.7202 11.5187C81.3064 8.10892 78.9135 5.19474 75.8439 3.1445C72.7743 1.09427 69.1658 0 65.4745 0C61.7832 0 58.1747 1.09427 55.1052 3.1445C52.0356 5.19474 49.6427 8.10892 48.2288 11.5187C46.815 14.9286 46.4438 18.681 47.162 22.3018C47.8802 25.9225 49.6556 29.2491 52.2639 31.8611C52.4751 32.077 52.7458 32.2251 53.0415 32.2865C53.3372 32.3479 53.6445 32.3198 53.9242 32.2059C54.2039 32.092 54.4433 31.8974 54.6119 31.6469C54.7806 31.3964 54.8708 31.1013 54.8711 30.7993C54.8668 30.3855 54.7003 29.99 54.4075 29.6976C52.2262 27.5074 50.7432 24.7198 50.1458 21.687C49.5484 18.6542 49.8635 15.5123 51.0513 12.6586C52.239 9.80477 54.2461 7.36714 56.8188 5.65375C59.3916 3.94035 62.4145 3.02809 65.5056 3.03227C68.5967 3.03645 71.6171 3.95688 74.1853 5.67723C76.7534 7.39757 78.7538 9.84062 79.9339 12.6976C81.1139 15.5546 81.4205 18.6973 80.8149 21.7284C80.2093 24.7596 78.7187 27.5432 76.5316 29.7275L63.316 42.9232Z"
          fill="white"/>
</svg>
