<svg width="32" height="32" viewBox="0 0 32 32" fill="none" xmlns="http://www.w3.org/2000/svg">
    <rect width="32" height="32" rx="16" fill="#F5F5F5"/>
    <path d="M23.7432 8.23511C23.4275 7.96741 22.9317 7.92911 22.419 8.13493H22.4182C21.879 8.35128 7.15588 14.6665 6.55652 14.9245C6.44751 14.9624 5.49543 15.3176 5.5935 16.1089C5.68105 16.8223 6.44625 17.1178 6.53969 17.1519L10.2828 18.4335C10.5311 19.2602 11.4465 22.31 11.649 22.9616C11.7753 23.3678 11.9811 23.9015 12.3418 24.0113C12.6583 24.1334 12.9732 24.0218 13.1769 23.8619L15.4653 21.7393L19.1596 24.6204L19.2475 24.673C19.4984 24.7841 19.7387 24.8396 19.9681 24.8396C20.1453 24.8396 20.3154 24.8064 20.4778 24.7399C21.0313 24.5126 21.2527 23.9852 21.2758 23.9255L24.0353 9.58241C24.2036 8.81637 23.9696 8.42662 23.7432 8.23511ZM13.5839 18.9462L12.3212 22.3134L11.0585 18.1044L20.7392 10.9491L13.5839 18.9462Z"
          fill="#0065B2"/>
</svg>
